<?xml version="1.0" encoding="UTF-8" standalone="no"?>
<!DOCTYPE svg PUBLIC "-//W3C//DTD SVG 1.1//EN" "http://www.w3.org/Graphics/SVG/1.1/DTD/svg11.dtd">
<svg version="1.1" xmlns="http://www.w3.org/2000/svg" xmlns:xlink="http://www.w3.org/1999/xlink" preserveAspectRatio="xMidYMid meet" viewBox="0.4399999999999977 221.69 642.5699999999999 198.61000000000018" width="638.57" height="194.61"><defs><path d="M91.25 275.19C91.66 275.71 92.38 275.84 92.95 275.51C93.66 275.18 94.08 274.49 93.83 274.01C93.62 273.51 92.85 273.36 92.13 273.7C91.42 274.05 91.02 274.71 91.25 275.19ZM95.54 272.06C96.03 272.51 96.93 272.3 97.57 271.6C98.22 270.9 98.4 269.97 97.86 269.53C97.39 269.1 96.45 269.31 95.83 269.99C95.22 270.68 95.06 271.61 95.54 272.06ZM99.59 266.98C100.19 267.4 101.19 266.98 101.81 266.15C102.43 265.46 102.41 264.41 101.77 263.74C101.21 263.33 100.21 263.75 99.59 264.61C98.96 265.27 98.96 266.31 99.59 266.98ZM104.05 261.21C104.59 261.8 105.77 261.64 106.68 260.84C107.59 260.04 107.71 258.88 107.13 258.29C106.62 257.69 105.46 257.87 104.62 258.68C103.77 259.5 103.51 260.62 104.05 261.21ZM110.41 256.27C110.91 257.14 111.98 257.49 112.9 257.08C114.07 256.76 114.75 255.88 114.52 255.05C114.28 254.27 113.2 253.92 112.04 254.24C110.88 254.57 110.19 255.56 110.41 256.27ZM118.37 254.42C118.36 255.22 119.31 255.92 120.49 255.93C121.68 255.94 122.64 255.34 122.64 254.52C122.64 253.67 121.72 252.99 120.53 252.98C119.35 252.97 118.39 253.61 118.37 254.42ZM125.98 255.03C125.84 255.82 126.67 256.68 127.83 256.89C128.99 257.1 130 256.59 130.2 255.77C130.34 255.01 129.51 254.18 128.34 253.97C127.17 253.76 126.13 254.24 125.98 255.03ZM398.92 324.96L398.92 315.75L358.11 315.75L358.11 324.96L398.92 324.96Z" id="c2aT8SEJE"></path><path d="M91.25 275.19C91.66 275.71 92.38 275.84 92.95 275.51C93.66 275.18 94.08 274.49 93.83 274.01C93.62 273.51 92.85 273.36 92.13 273.7C91.42 274.05 91.02 274.71 91.25 275.19ZM95.54 272.06C96.03 272.51 96.93 272.3 97.57 271.6C98.22 270.9 98.4 269.97 97.86 269.53C97.39 269.1 96.45 269.31 95.83 269.99C95.22 270.68 95.06 271.61 95.54 272.06ZM99.59 266.98C100.19 267.4 101.19 266.98 101.81 266.15C102.43 265.46 102.41 264.41 101.77 263.74C101.21 263.33 100.21 263.75 99.59 264.61C98.96 265.27 98.96 266.31 99.59 266.98ZM104.05 261.21C104.59 261.8 105.77 261.64 106.68 260.84C107.59 260.04 107.71 258.88 107.13 258.29C106.62 257.69 105.46 257.87 104.62 258.68C103.77 259.5 103.51 260.62 104.05 261.21ZM110.41 256.27C110.91 257.14 111.98 257.49 112.9 257.08C114.07 256.76 114.75 255.88 114.52 255.05C114.28 254.27 113.2 253.92 112.04 254.24C110.88 254.57 110.19 255.56 110.41 256.27ZM118.37 254.42C118.36 255.22 119.31 255.92 120.49 255.93C121.68 255.94 122.64 255.34 122.64 254.52C122.64 253.67 121.72 252.99 120.53 252.98C119.35 252.97 118.39 253.61 118.37 254.42ZM125.98 255.03C125.84 255.82 126.67 256.68 127.83 256.89C128.99 257.1 130 256.59 130.2 255.77C130.34 255.01 129.51 254.18 128.34 253.97C127.17 253.76 126.13 254.24 125.98 255.03ZM398.92 324.96L398.92 315.75L358.11 315.75L358.11 324.96L398.92 324.96Z" id="d4X8l68gPU"></path><path d="M383.66 299.78L383.66 340.69L374.42 340.69L374.42 299.78L383.66 299.78Z" id="i1QFD3vXcF"></path><path d="M383.66 299.78L383.66 340.69L374.42 340.69L374.42 299.78L383.66 299.78Z" id="aI2ZaFzQd"></path><path d="M42.35 361.72L42.35 377.05L26.47 377.05L26.47 361.72L42.35 361.72Z" id="b43ECy6HZz"></path><path d="M42.35 361.72L42.35 377.05L26.47 377.05L26.47 361.72L42.35 361.72Z" id="aWQcjL1jz"></path><path d="M46.57 365.12L46.57 381.25L30.51 381.25L30.51 365.12L46.57 365.12Z" id="a688pFajK"></path><path d="M46.57 365.12L46.57 381.25L30.51 381.25L30.51 365.12L46.57 365.12Z" id="h4uHfiHOjy"></path><path d="M50.63 370.17L50.63 386.88L34.34 386.88L34.34 370.17L50.63 370.17Z" id="b4bkl2d8ZP"></path><path d="M50.63 370.17L50.63 386.88L34.34 386.88L34.34 370.17L50.63 370.17Z" id="b2acEcnydJ"></path><path d="M55.79 375.76L55.79 392.56L38.94 392.56L38.94 375.76L55.79 375.76Z" id="e1by23O3Xx"></path><path d="M55.79 375.76L55.79 392.56L38.94 392.56L38.94 375.76L55.79 375.76Z" id="a5AYfYfMN"></path><path d="M465.92 366.07C454.63 366.07 445.48 356.92 445.48 345.63C445.48 334.34 454.63 325.19 465.92 325.19C467.28 325.19 474.09 325.19 486.36 325.19C486.36 336.09 486.36 342.91 486.36 345.63C486.36 356.92 477.21 366.07 465.92 366.07Z" id="bAt8bkRRN"></path><path d="M465.92 366.07C454.63 366.07 445.48 356.92 445.48 345.63C445.48 334.34 454.63 325.19 465.92 325.19C467.28 325.19 474.09 325.19 486.36 325.19C486.36 336.09 486.36 342.91 486.36 345.63C486.36 356.92 477.21 366.07 465.92 366.07Z" id="j4e3NU9IRO"></path><path d="M517.1 325.18C528.4 325.18 537.56 334.34 537.56 345.63C537.56 350.75 537.56 391.68 537.56 396.79C537.56 408.09 528.4 417.25 517.1 417.25C505.81 417.25 496.65 408.09 496.65 396.79C496.65 386.56 496.65 355.87 496.65 345.63C496.65 334.34 505.81 325.18 517.1 325.18Z" id="e9MsVF5CO"></path><path d="M517.1 325.18C528.4 325.18 537.56 334.34 537.56 345.63C537.56 350.75 537.56 391.68 537.56 396.79C537.56 408.09 528.4 417.25 517.1 417.25C505.81 417.25 496.65 408.09 496.65 396.79C496.65 386.56 496.65 355.87 496.65 345.63C496.65 334.34 505.81 325.18 517.1 325.18Z" id="aGO0HZ6qz"></path><path d="M496.64 243.18C496.64 231.89 505.79 222.74 517.08 222.74C528.37 222.74 537.52 231.89 537.52 243.18C537.52 244.54 537.52 251.35 537.52 263.62C526.62 263.62 519.8 263.62 517.08 263.62C505.79 263.62 496.64 254.47 496.64 243.18Z" id="aUrnUzW6G"></path><path d="M496.64 243.18C496.64 231.89 505.79 222.74 517.08 222.74C528.37 222.74 537.52 231.89 537.52 243.18C537.52 244.54 537.52 251.35 537.52 263.62C526.62 263.62 519.8 263.62 517.08 263.62C505.79 263.62 496.64 254.47 496.64 243.18Z" id="b2CbVHNroI"></path><path d="M537.53 294.33C537.53 305.62 528.37 314.78 517.08 314.78C511.96 314.78 471.03 314.78 465.92 314.78C454.62 314.78 445.46 305.62 445.46 294.33C445.46 283.03 454.62 273.87 465.92 273.87C476.15 273.87 506.85 273.87 517.08 273.87C528.37 273.87 537.53 283.03 537.53 294.33Z" id="kv5UPulX"></path><path d="M537.53 294.33C537.53 305.62 528.37 314.78 517.08 314.78C511.96 314.78 471.03 314.78 465.92 314.78C454.62 314.78 445.46 305.62 445.46 294.33C445.46 283.03 454.62 273.87 465.92 273.87C476.15 273.87 506.85 273.87 517.08 273.87C528.37 273.87 537.53 283.03 537.53 294.33Z" id="b6re2rY4lw"></path><path d="M619.55 273.86C630.84 273.86 639.99 283.01 639.99 294.3C639.99 305.58 630.84 314.73 619.56 314.74C618.2 314.74 611.38 314.74 599.11 314.74C599.11 303.84 599.11 297.03 599.11 294.3C599.11 283.01 608.26 273.86 619.55 273.86Z" id="a9K94PI1d"></path><path d="M619.55 273.86C630.84 273.86 639.99 283.01 639.99 294.3C639.99 305.58 630.84 314.73 619.56 314.74C618.2 314.74 611.38 314.74 599.11 314.74C599.11 303.84 599.11 297.03 599.11 294.3C599.11 283.01 608.26 273.86 619.55 273.86Z" id="f5xhhioMI9"></path><path d="M568.38 314.75C557.09 314.75 547.93 305.6 547.93 294.3C547.93 289.18 547.93 248.26 547.93 243.14C547.93 231.84 557.09 222.69 568.38 222.69C579.68 222.69 588.84 231.84 588.84 243.14C588.84 253.37 588.84 284.07 588.84 294.3C588.84 305.6 579.68 314.75 568.38 314.75Z" id="aauW8qDMV"></path><path d="M568.38 314.75C557.09 314.75 547.93 305.6 547.93 294.3C547.93 289.18 547.93 248.26 547.93 243.14C547.93 231.84 557.09 222.69 568.38 222.69C579.68 222.69 588.84 231.84 588.84 243.14C588.84 253.37 588.84 284.07 588.84 294.3C588.84 305.6 579.68 314.75 568.38 314.75Z" id="epRFIyNA6"></path><path d="M588.85 396.78C588.86 408.07 579.71 417.23 568.42 417.24C557.13 417.24 547.98 408.1 547.97 396.81C547.97 396.8 547.97 396.8 547.97 396.79C547.97 395.43 547.97 388.62 547.97 376.35C558.86 376.35 565.67 376.35 568.4 376.35C579.69 376.35 588.84 385.49 588.85 396.78Z" id="b35Fib9WGW"></path><path d="M588.85 396.78C588.86 408.07 579.71 417.23 568.42 417.24C557.13 417.24 547.98 408.1 547.97 396.81C547.97 396.8 547.97 396.8 547.97 396.79C547.97 395.43 547.97 388.62 547.97 376.35C558.86 376.35 565.67 376.35 568.4 376.35C579.69 376.35 588.84 385.49 588.85 396.78Z" id="b1AGmHG1K"></path><path d="M547.94 345.61C547.94 334.31 557.1 325.15 568.4 325.15C573.51 325.15 614.44 325.15 619.56 325.15C630.86 325.15 640.01 334.31 640.01 345.61C640.01 356.9 630.86 366.06 619.56 366.06C609.33 366.06 578.63 366.06 568.4 366.06C557.1 366.06 547.94 356.9 547.94 345.61Z" id="cxwXCzTSP"></path><path d="M547.94 345.61C547.94 334.31 557.1 325.15 568.4 325.15C573.51 325.15 614.44 325.15 619.56 325.15C630.86 325.15 640.01 334.31 640.01 345.61C640.01 356.9 630.86 366.06 619.56 366.06C609.33 366.06 578.63 366.06 568.4 366.06C557.1 366.06 547.94 356.9 547.94 345.61Z" id="euWxRaR4n"></path><path d="M170.83 368.46C154.3 319.9 137.78 271.34 121.25 222.77C104.3 222.77 87.33 222.77 70.37 222.77C92.51 287.61 114.67 352.46 136.81 417.3C165.59 417.26 194.4 417.25 223.19 417.23C217.64 400.97 212.08 384.74 206.54 368.48C194.64 368.48 182.73 368.46 170.83 368.46Z" id="a1utVL7o9C"></path><path d="M170.83 368.46C154.3 319.9 137.78 271.34 121.25 222.77C104.3 222.77 87.33 222.77 70.37 222.77C92.51 287.61 114.67 352.46 136.81 417.3C165.59 417.26 194.4 417.25 223.19 417.23C217.64 400.97 212.08 384.74 206.54 368.48C194.64 368.48 182.73 368.46 170.83 368.46Z" id="eawmqsuDU"></path><path d="M1.44 417.26C18.34 417.26 35.23 417.25 52.13 417.25C58.81 397.68 65.49 378.09 72.18 358.51C87.02 358.51 101.88 358.51 116.74 358.5C101.29 313.27 85.83 268.02 70.37 222.77C69.47 222.77 68.55 222.77 67.65 222.77C45.58 287.61 23.51 352.44 1.44 417.26Z" id="ahDf3SY7K"></path><path d="M1.44 417.26C18.34 417.26 35.23 417.25 52.13 417.25C58.81 397.68 65.49 378.09 72.18 358.51C87.02 358.51 101.88 358.51 116.74 358.5C101.29 313.27 85.83 268.02 70.37 222.77C69.47 222.77 68.55 222.77 67.65 222.77C45.58 287.61 23.51 352.44 1.44 417.26Z" id="dWQPlLt1g"></path><path d="M248.4 342.51C234.8 302.61 221.21 262.68 207.63 222.77C190.66 222.77 173.67 222.77 156.7 222.77C178.87 287.61 201.05 352.46 223.24 417.3C240.05 417.28 256.87 417.28 273.69 417.26C295.83 352.41 317.97 287.57 340.12 222.74C323.13 222.75 306.15 222.77 289.16 222.77C275.58 262.68 261.99 302.59 248.4 342.51Z" id="a4ILQ1uhG"></path><path d="M248.4 342.51C234.8 302.61 221.21 262.68 207.63 222.77C190.66 222.77 173.67 222.77 156.7 222.77C178.87 287.61 201.05 352.46 223.24 417.3C240.05 417.28 256.87 417.28 273.69 417.26C295.83 352.41 317.97 287.57 340.12 222.74C323.13 222.75 306.15 222.77 289.16 222.77C275.58 262.68 261.99 302.59 248.4 342.51Z" id="aePRCiB1M"></path></defs><g><g><use xlink:href="#c2aT8SEJE" opacity="1" fill="#000000" fill-opacity="1"></use><g><use xlink:href="#c2aT8SEJE" opacity="1" fill-opacity="0" stroke="#000000" stroke-width="1" stroke-opacity="0"></use></g></g><g><use xlink:href="#d4X8l68gPU" opacity="1" fill="#000000" fill-opacity="0"></use><g><use xlink:href="#d4X8l68gPU" opacity="1" fill-opacity="0" stroke="#000000" stroke-width="1" stroke-opacity="0"></use></g></g><g><use xlink:href="#i1QFD3vXcF" opacity="1" fill="#000000" fill-opacity="1"></use><g><use xlink:href="#i1QFD3vXcF" opacity="1" fill-opacity="0" stroke="#000000" stroke-width="1" stroke-opacity="0"></use></g></g><g><use xlink:href="#aI2ZaFzQd" opacity="1" fill="#000000" fill-opacity="0"></use><g><use xlink:href="#aI2ZaFzQd" opacity="1" fill-opacity="0" stroke="#000000" stroke-width="1" stroke-opacity="0"></use></g></g><g><use xlink:href="#b43ECy6HZz" opacity="1" fill="#fefefe" fill-opacity="1"></use><g><use xlink:href="#b43ECy6HZz" opacity="1" fill-opacity="0" stroke="#000000" stroke-width="1" stroke-opacity="0"></use></g></g><g><use xlink:href="#aWQcjL1jz" opacity="1" fill="#000000" fill-opacity="0"></use><g><use xlink:href="#aWQcjL1jz" opacity="1" fill-opacity="0" stroke="#000000" stroke-width="1" stroke-opacity="0"></use></g></g><g><use xlink:href="#a688pFajK" opacity="1" fill="#fefefe" fill-opacity="1"></use><g><use xlink:href="#a688pFajK" opacity="1" fill-opacity="0" stroke="#000000" stroke-width="1" stroke-opacity="0"></use></g></g><g><use xlink:href="#h4uHfiHOjy" opacity="1" fill="#000000" fill-opacity="0"></use><g><use xlink:href="#h4uHfiHOjy" opacity="1" fill-opacity="0" stroke="#000000" stroke-width="1" stroke-opacity="0"></use></g></g><g><use xlink:href="#b4bkl2d8ZP" opacity="1" fill="#fefefe" fill-opacity="1"></use><g><use xlink:href="#b4bkl2d8ZP" opacity="1" fill-opacity="0" stroke="#000000" stroke-width="1" stroke-opacity="0"></use></g></g><g><use xlink:href="#b2acEcnydJ" opacity="1" fill="#000000" fill-opacity="0"></use><g><use xlink:href="#b2acEcnydJ" opacity="1" fill-opacity="0" stroke="#000000" stroke-width="1" stroke-opacity="0"></use></g></g><g><use xlink:href="#e1by23O3Xx" opacity="1" fill="#fefefe" fill-opacity="1"></use><g><use xlink:href="#e1by23O3Xx" opacity="1" fill-opacity="0" stroke="#000000" stroke-width="1" stroke-opacity="0"></use></g></g><g><use xlink:href="#a5AYfYfMN" opacity="1" fill="#000000" fill-opacity="0"></use><g><use xlink:href="#a5AYfYfMN" opacity="1" fill-opacity="0" stroke="#000000" stroke-width="1" stroke-opacity="0"></use></g></g><g><use xlink:href="#bAt8bkRRN" opacity="1" fill="#e01e5a" fill-opacity="1"></use><g><use xlink:href="#bAt8bkRRN" opacity="1" fill-opacity="0" stroke="#000000" stroke-width="1" stroke-opacity="0"></use></g></g><g><use xlink:href="#j4e3NU9IRO" opacity="1" fill="#000000" fill-opacity="0"></use><g><use xlink:href="#j4e3NU9IRO" opacity="1" fill-opacity="0" stroke="#000000" stroke-width="1" stroke-opacity="0"></use></g></g><g><use xlink:href="#e9MsVF5CO" opacity="1" fill="#e01e5a" fill-opacity="1"></use><g><use xlink:href="#e9MsVF5CO" opacity="1" fill-opacity="0" stroke="#000000" stroke-width="1" stroke-opacity="0"></use></g></g><g><use xlink:href="#aGO0HZ6qz" opacity="1" fill="#000000" fill-opacity="0"></use><g><use xlink:href="#aGO0HZ6qz" opacity="1" fill-opacity="0" stroke="#000000" stroke-width="1" stroke-opacity="0"></use></g></g><g><use xlink:href="#aUrnUzW6G" opacity="1" fill="#36c5f0" fill-opacity="1"></use><g><use xlink:href="#aUrnUzW6G" opacity="1" fill-opacity="0" stroke="#000000" stroke-width="1" stroke-opacity="0"></use></g></g><g><use xlink:href="#b2CbVHNroI" opacity="1" fill="#000000" fill-opacity="0"></use><g><use xlink:href="#b2CbVHNroI" opacity="1" fill-opacity="0" stroke="#000000" stroke-width="1" stroke-opacity="0"></use></g></g><g><use xlink:href="#kv5UPulX" opacity="1" fill="#36c5f0" fill-opacity="1"></use><g><use xlink:href="#kv5UPulX" opacity="1" fill-opacity="0" stroke="#000000" stroke-width="1" stroke-opacity="0"></use></g></g><g><use xlink:href="#b6re2rY4lw" opacity="1" fill="#000000" fill-opacity="0"></use><g><use xlink:href="#b6re2rY4lw" opacity="1" fill-opacity="0" stroke="#000000" stroke-width="1" stroke-opacity="0"></use></g></g><g><use xlink:href="#a9K94PI1d" opacity="1" fill="#2eb67d" fill-opacity="1"></use><g><use xlink:href="#a9K94PI1d" opacity="1" fill-opacity="0" stroke="#000000" stroke-width="1" stroke-opacity="0"></use></g></g><g><use xlink:href="#f5xhhioMI9" opacity="1" fill="#000000" fill-opacity="0"></use><g><use xlink:href="#f5xhhioMI9" opacity="1" fill-opacity="0" stroke="#000000" stroke-width="1" stroke-opacity="0"></use></g></g><g><use xlink:href="#aauW8qDMV" opacity="1" fill="#2eb67d" fill-opacity="1"></use><g><use xlink:href="#aauW8qDMV" opacity="1" fill-opacity="0" stroke="#000000" stroke-width="1" stroke-opacity="0"></use></g></g><g><use xlink:href="#epRFIyNA6" opacity="1" fill="#000000" fill-opacity="0"></use><g><use xlink:href="#epRFIyNA6" opacity="1" fill-opacity="0" stroke="#000000" stroke-width="1" stroke-opacity="0"></use></g></g><g><use xlink:href="#b35Fib9WGW" opacity="1" fill="#ecb22e" fill-opacity="1"></use><g><use xlink:href="#b35Fib9WGW" opacity="1" fill-opacity="0" stroke="#000000" stroke-width="1" stroke-opacity="0"></use></g></g><g><use xlink:href="#b1AGmHG1K" opacity="1" fill="#000000" fill-opacity="0"></use><g><use xlink:href="#b1AGmHG1K" opacity="1" fill-opacity="0" stroke="#000000" stroke-width="1" stroke-opacity="0"></use></g></g><g><use xlink:href="#cxwXCzTSP" opacity="1" fill="#ecb22e" fill-opacity="1"></use><g><use xlink:href="#cxwXCzTSP" opacity="1" fill-opacity="0" stroke="#000000" stroke-width="1" stroke-opacity="0"></use></g></g><g><use xlink:href="#euWxRaR4n" opacity="1" fill="#000000" fill-opacity="0"></use><g><use xlink:href="#euWxRaR4n" opacity="1" fill-opacity="0" stroke="#000000" stroke-width="1" stroke-opacity="0"></use></g></g><g><use xlink:href="#a1utVL7o9C" opacity="1" fill="#001738" fill-opacity="1"></use><g><use xlink:href="#a1utVL7o9C" opacity="1" fill-opacity="0" stroke="#000000" stroke-width="1" stroke-opacity="0"></use></g></g><g><use xlink:href="#eawmqsuDU" opacity="1" fill="#000000" fill-opacity="0"></use><g><use xlink:href="#eawmqsuDU" opacity="1" fill-opacity="0" stroke="#000000" stroke-width="1" stroke-opacity="0"></use></g></g><g><use xlink:href="#ahDf3SY7K" opacity="1" fill="#0096da" fill-opacity="1"></use><g><use xlink:href="#ahDf3SY7K" opacity="1" fill-opacity="0" stroke="#000000" stroke-width="1" stroke-opacity="0"></use></g></g><g><use xlink:href="#dWQPlLt1g" opacity="1" fill="#000000" fill-opacity="0"></use><g><use xlink:href="#dWQPlLt1g" opacity="1" fill-opacity="0" stroke="#000000" stroke-width="1" stroke-opacity="0"></use></g></g><g><use xlink:href="#a4ILQ1uhG" opacity="1" fill="#0096da" fill-opacity="1"></use><g><use xlink:href="#a4ILQ1uhG" opacity="1" fill-opacity="0" stroke="#000000" stroke-width="1" stroke-opacity="0"></use></g></g><g><use xlink:href="#aePRCiB1M" opacity="1" fill="#000000" fill-opacity="0"></use><g><use xlink:href="#aePRCiB1M" opacity="1" fill-opacity="0" stroke="#000000" stroke-width="1" stroke-opacity="0"></use></g></g></g></svg>