<svg width="305" height="165" viewBox="0 0 305 165" fill="none" xmlns="http://www.w3.org/2000/svg">
<g clip-path="url(#clip0_126_6)">
<path d="M197.156 164.919C192.41 151.158 187.705 137.358 182.959 123.597C172.813 123.597 162.667 123.597 152.52 123.597C138.447 82.3982 124.373 41.1991 110.299 0C95.8571 0 81.3742 0 66.9323 0C85.7927 55 104.694 109.959 123.555 164.959C148.102 164.959 172.649 164.959 197.156 164.919Z" fill="#F8F1E3"/>
<path d="M58.7498 0H56.4178C37.5983 55 18.8196 110 0 164.959C14.4011 164.959 28.8021 164.959 43.2032 164.959C48.89 148.349 54.5768 131.739 60.3045 115.17C72.9463 115.17 85.6291 115.17 98.271 115.17C85.0972 76.7802 71.9235 38.3901 58.7498 0Z" fill="#F8F1E3"/>
<path d="M305 0.000183243C290.517 0.000183243 276.034 0.000183243 261.551 0.000183243C249.973 33.8307 238.395 67.7019 226.817 101.532C215.239 67.7019 203.661 33.8714 192.082 0.000183243C177.6 0.000183243 163.158 0.000183243 148.675 0.000183243C167.576 55.0002 186.478 109.959 205.379 164.959H248.378C267.238 109.959 286.14 54.9595 305 -0.0405273V0.000183243Z" fill="#F8F1E3"/>
</g>
<defs>
<clipPath id="clip0_126_6">
<rect width="305" height="165" fill="white"/>
</clipPath>
</defs>
</svg>
